Coordinates
version=1
nRows=13
nColumns=40
inDegrees=yes

Units are S.I. units (second, meters, Newtons, ...)
Angles are in degrees.

endheader
time	pelvis_tilt	pelvis_list	pelvis_rotation	pelvis_tx	pelvis_ty	pelvis_tz	hip_flexion_r	hip_adduction_r	hip_rotation_r	knee_angle_r	knee_angle_r_beta	ankle_angle_r	subtalar_angle_r	mtp_angle_r	hip_flexion_l	hip_adduction_l	hip_rotation_l	knee_angle_l	knee_angle_l_beta	ankle_angle_l	subtalar_angle_l	mtp_angle_l	lumbar_extension	lumbar_bending	lumbar_rotation	arm_flex_r	arm_add_r	arm_rot_r	elbow_flex_r	pro_sup_r	wrist_flex_r	wrist_dev_r	arm_flex_l	arm_add_l	arm_rot_l	elbow_flex_l	pro_sup_l	wrist_flex_l	wrist_dev_l
     27.49000000	     -0.80683129	     -5.46854454	      0.38916883	      1.10106174	      0.93458965	      0.41312312	     25.49181028	     -6.63662168	     -7.09906618	     61.11617173	     61.11617173	      3.64379852	    -11.71858713	     -0.89059255	     14.01234026	     -7.04215439	     -9.24066316	     24.72412054	     24.72412054	     14.30689171	     -6.61238473	     -1.79622632	     -9.53195605	      4.63605981	      0.66136544	      8.08557105	    -14.23042013	     -0.98682955	     60.22412954	     43.84158428	      0.00000000	      0.00000000	     17.51109522	    -15.91050101	      5.88626527	     50.04880964	     44.35965963	      0.00000000	      0.00000000
     27.50364286	     -0.77586815	     -5.46898935	     -0.00524297	      1.10067761	      0.93572797	      0.41241193	     26.00847026	     -6.47678251	     -6.90741216	     58.77242687	     58.77242687	      3.65646357	    -10.94992314	     -1.10108780	     13.07331150	     -7.00540188	     -9.81479077	     23.92791162	     23.92791162	     14.45125887	     -6.19493949	     -1.82698698	     -9.72327325	      4.58403875	      0.96403138	      5.97446453	    -14.45469929	     -0.52547333	     57.96975315	     43.92381474	      0.00000000	      0.00000000	     18.62258903	    -16.01086315	      5.53524849	     51.06174847	     44.44872129	      0.00000000	      0.00000000
     27.51728571	     -0.90406145	     -5.53257690	     -0.30773917	      1.10020613	      0.93644906	      0.41169131	     26.56467299	     -6.24272408	     -6.80838511	     56.20626681	     56.20626681	      3.63497840	    -10.18127407	     -1.03336892	     12.42961552	     -7.00826292	    -10.18206834	     23.28756554	     23.28756554	     14.59550066	     -5.94558289	     -1.82889508	     -9.70851082	      4.65662275	      0.80658769	      3.83743300	    -14.43358577	     -0.21467747	     56.34759736	     43.96841576	      0.00000000	      0.00000000	     19.55393098	    -16.46788770	      5.22399299	     51.71934421	     44.50294427	      0.00000000	      0.00000000
     27.53092857	     -0.77696996	     -5.46601363	     -0.65547730	      1.09984468	      0.93752176	      0.41101696	     26.62786360	     -6.11442835	     -6.66903459	     53.20775500	     53.20775500	      3.14234833	     -9.44810524	     -2.37157596	     11.36550988	     -6.92479204	    -11.01482625	     22.42012193	     22.42012193	     14.54065629	     -5.21775300	     -2.50390163	     -9.90504030	      4.47896389	      0.58233885	      3.85414620	    -14.09003075	      0.59156292	     49.22713587	     44.28408709	      0.00000000	      0.00000000	     20.16483509	    -16.70568100	      4.43364831	     53.42541995	     44.71891512	      0.00000000	      0.00000000
     27.54457143	     -0.99597580	     -5.42231988	     -0.93536893	      1.09917486	      0.93774839	      0.41042765	     27.03393590	     -5.93983770	     -6.56212806	     50.13364464	     50.13364464	      3.07734453	     -8.59836172	     -2.06305000	     10.95494953	     -6.80523551	    -11.30660069	     21.96272124	     21.96272124	     14.67434759	     -5.13245681	     -2.49609199	     -9.83435994	      4.46132721	      0.40592413	      1.91090087	    -14.11760412	      0.79967728	     48.10402111	     44.31133556	      0.00000000	      0.00000000	     21.03457420	    -17.27133683	      4.06700327	     54.03813185	     44.77239901	      0.00000000	      0.00000000
     27.55821429	     -0.81996917	     -5.37198938	     -1.22671107	      1.09880084	      0.93859819	      0.40980010	     26.75962595	     -5.84268774	     -6.63584983	     46.61477912	     46.61477912	      3.03176266	     -7.15495065	     -2.02605582	      9.83412740	     -6.63732781	    -11.78499747	     21.02787924	     21.02787924	     14.77550449	     -4.68411364	     -2.58871647	    -10.24235860	      4.38671710	      1.18151295	      0.14854656	    -14.44170520	      1.19687039	     45.04697835	     44.41909926	      0.00000000	      0.00000000	     22.21007422	    -16.80630080	      3.57854378	     55.67618577	     44.87119614	      0.00000000	      0.00000000
     27.57185714	     -0.95662396	     -5.31553984	     -1.43817840	      1.09818003	      0.93866925	      0.40937294	     26.70287867	     -5.70294188	     -6.79982638	     42.80843289	     42.80843289	      2.50407578	     -6.12657047	     -2.88886201	      9.29501997	     -6.49861698	    -12.11727068	     20.43291855	     20.43291855	     14.65314047	     -4.54400471	     -3.34849915	    -10.16447363	      4.30664756	      0.33271709	      0.50186369	    -13.79602342	      1.57729039	     38.79426930	     44.72732275	      0.00000000	      0.00000000	     22.24083619	    -17.44565476	      2.06517546	     57.52799347	     45.14300375	      0.00000000	      0.00000000
     27.58550000	     -1.08930728	     -5.20377808	     -1.64131686	      1.09754321	      0.93862324	      0.40899198	     26.52278835	     -5.63397224	     -7.11227793	     38.79480915	     38.79480915	      2.31544228	     -4.62847410	     -2.68257021	      8.78121981	     -6.28647500	    -12.34546254	     19.89593973	     19.89593973	     14.75060389	     -4.40001451	     -3.47122029	    -10.21263336	      4.21689488	      0.55874462	     -1.24172925	    -13.89918709	      1.74168024	     37.06909821	     44.79855565	      0.00000000	      0.00000000	     23.05881118	    -17.44699687	      1.49069333	     58.80147495	     45.24895501	      0.00000000	      0.00000000
     27.59914286	     -1.34117799	     -5.18777319	     -1.79247788	      1.09684181	      0.93820784	      0.40881917	     26.30250576	     -5.38709052	     -7.53459343	     34.50580136	     34.50580136	      2.07822761	     -3.26104766	     -2.15469986	      8.51184576	     -6.20607522	    -12.46243863	     19.54543394	     19.54543394	     14.93116957	     -4.37379329	     -3.60958176	    -10.05933049	      4.25866114	      0.47650585	     -2.87085544	    -13.98411353	      1.81556005	     35.82357622	     44.84234892	      0.00000000	      0.00000000	     23.73442557	    -17.66400357	      1.12577973	     59.63882818	     45.30817144	      0.00000000	      0.00000000
     27.61278571	     -1.63759241	     -5.08568307	     -1.97877225	      1.09614590	      0.93766928	      0.40884420	     25.99768521	     -5.17759878	     -8.07647060	     30.03168186	     30.03168186	      1.75117384	     -1.67383043	     -1.53471170	      8.27663037	     -6.04579148	    -12.62989168	     19.17104073	     19.17104073	     15.05215232	     -4.33587524	     -3.74958498	     -9.89934606	      4.20709991	      0.56725808	     -4.47682336	    -13.93664862	      1.89664231	     34.56945401	     44.88466901	      0.00000000	      0.00000000	     24.43107926	    -17.83469131	      0.73885867	     60.60443391	     45.36788096	      0.00000000	      0.00000000
     27.62642857	     -1.66779853	     -4.86459046	     -2.13619188	      1.09579651	      0.93733783	      0.40881878	     25.24001705	     -5.18816327	     -9.22029729	     25.47605090	     25.47605090	      1.25127716	      0.88780614	     -1.82011337	      7.60377705	     -5.69270941	    -12.75796137	     18.52451645	     18.52451645	     14.90297080	     -4.40714748	     -4.54029648	    -10.05357248	      3.99897027	      0.48637836	     -5.21970524	    -13.80176381	      1.54729906	     31.19974598	     45.09190539	      0.00000000	      0.00000000	     24.48993729	    -17.89908044	     -0.63593249	     63.01155644	     45.57827563	      0.00000000	      0.00000000
     27.64007143	     -1.79523160	     -4.74311138	     -2.30894761	      1.09538119	      0.93677682	      0.40921691	     24.52600335	     -4.84006270	    -10.01349006	     21.00798194	     21.00798194	      0.85189708	      2.74822748	     -0.77532793	      7.17746595	     -5.52116308	    -12.85906503	     18.17286985	     18.17286985	     14.98714910	     -4.50697311	     -4.89871655	    -10.04982999	      3.90402444	      0.52811614	     -6.56223819	    -13.73675958	      1.39771868	     30.01031599	     45.16360559	      0.00000000	      0.00000000	     24.97185614	    -18.05763549	     -1.25897654	     64.28733676	     45.67981384	      0.00000000	      0.00000000
     27.65371429	     -2.06599066	     -4.58442936	     -2.49068179	      1.09507140	      0.93590192	      0.40985449	     24.02473350	     -4.45583134	    -10.82305551	     16.99069576	     16.99069576	      0.46148893	      4.42079798	      0.46573316	      6.91242882	     -5.33015567	    -12.95928369	     17.84427406	     17.84427406	     15.12625632	     -4.55118627	     -5.14731304	     -9.84110382	      3.80834828	      0.60756384	     -8.00954319	    -13.74666663	      1.32090069	     29.21087715	     45.20097758	      0.00000000	      0.00000000	     25.34020570	    -18.20747164	     -1.66077620	     65.26886882	     45.74168031	      0.00000000	      0.00000000
